<?xml version="1.0" standalone="no"?>
<!DOCTYPE svg PUBLIC "-//W3C//DTD SVG 20010904//EN"
 "http://www.w3.org/TR/2001/REC-SVG-20010904/DTD/svg10.dtd">
<svg version="1.0" xmlns="http://www.w3.org/2000/svg"
 width="218.000000pt" height="214.000000pt" viewBox="0 0 218.000000 214.000000"
 preserveAspectRatio="xMidYMid meet">

<g transform="translate(0.000000,214.000000) scale(0.100000,-0.100000)"
fill="#000000" stroke="none">
<path d="M1005 1921 c-45 -20 -385 -345 -385 -367 0 -9 11 -14 31 -14 16 0 51
-5 77 -12 41 -10 67 -31 213 -175 92 -90 172 -163 179 -163 7 0 87 73 179 163
172 169 199 187 280 187 17 0 31 4 31 8 0 4 -78 85 -173 179 -117 117 -186
178 -217 192 -59 27 -159 28 -215 2z"/>
<path d="M396 1341 c-134 -137 -156 -175 -156 -271 0 -96 23 -136 152 -267
l112 -113 93 0 c73 0 102 4 131 19 20 11 104 87 186 170 160 161 185 176 251
151 17 -6 100 -80 185 -165 85 -84 168 -158 183 -164 16 -6 63 -11 106 -11
l78 0 115 118 c135 138 153 173 146 280 -3 37 -13 83 -23 102 -10 19 -67 86
-128 148 l-111 112 -85 0 c-67 0 -93 -4 -116 -19 -16 -11 -97 -85 -180 -165
-158 -154 -187 -173 -247 -155 -20 5 -87 63 -192 167 -178 176 -189 182 -319
182 l-64 0 -117 -119z"/>
<path d="M951 796 c-86 -85 -171 -161 -188 -170 -18 -9 -60 -19 -93 -23 -33
-3 -60 -9 -60 -12 0 -4 78 -84 173 -178 194 -194 223 -213 327 -213 102 0 130
19 326 211 96 95 174 176 174 181 0 4 -13 8 -30 8 -16 0 -53 9 -82 20 -44 16
-78 45 -208 175 -85 85 -161 155 -169 155 -8 0 -85 -69 -170 -154z"/>
</g>
</svg>
